<svg width="39" height="39" viewBox="0 0 39 39" fill="none" xmlns="http://www.w3.org/2000/svg">
<g clip-path="url(#clip0_1822_129)">
<g filter="url(#filter0_ddd_1822_129)">
<rect width="38.5947" height="38.59" rx="3" fill="url(#paint0_linear_1822_129)"/>
</g>
<g filter="url(#filter1_d_1822_129)">
<path d="M7.74105 19.295C7.73535 19.4579 7.84567 19.5977 8.00679 19.6344C15.7805 21.365 17.0618 22.664 18.565 30.3236C18.5955 30.4824 18.736 30.5951 18.9025 30.5951C19.0691 30.5951 19.216 30.4824 19.2591 30.3236C21.297 22.6641 22.6709 21.3652 30.5644 19.6344C30.7267 19.5991 30.8482 19.4579 30.8539 19.295C30.8596 19.1322 30.7493 18.9924 30.5882 18.9557C22.8145 17.2251 21.5331 15.9261 20.0314 8.26647C20.0008 8.10766 19.8604 7.995 19.6939 7.995C19.5273 7.995 19.3804 8.10766 19.3373 8.26647C17.2994 15.926 15.9255 17.2249 8.03055 18.9557C7.86686 18.9924 7.74676 19.1322 7.74105 19.295Z" fill="white"/>
</g>
</g>
<defs>
<filter id="filter0_ddd_1822_129" x="-24" y="-8" width="86.5947" height="86.59" filterUnits="userSpaceOnUse" color-interpolation-filters="sRGB">
<feFlood flood-opacity="0" result="BackgroundImageFix"/>
<feColorMatrix in="SourceAlpha" type="matrix" values="0 0 0 0 0 0 0 0 0 0 0 0 0 0 0 0 0 0 127 0" result="hardAlpha"/>
<feOffset/>
<feGaussianBlur stdDeviation="0.5"/>
<feColorMatrix type="matrix" values="0 0 0 0 0 0 0 0 0 0 0 0 0 0 0 0 0 0 0.04 0"/>
<feBlend mode="normal" in2="BackgroundImageFix" result="effect1_dropShadow_1822_129"/>
<feColorMatrix in="SourceAlpha" type="matrix" values="0 0 0 0 0 0 0 0 0 0 0 0 0 0 0 0 0 0 127 0" result="hardAlpha"/>
<feOffset dy="2"/>
<feGaussianBlur stdDeviation="3"/>
<feColorMatrix type="matrix" values="0 0 0 0 0 0 0 0 0 0 0 0 0 0 0 0 0 0 0.04 0"/>
<feBlend mode="normal" in2="effect1_dropShadow_1822_129" result="effect2_dropShadow_1822_129"/>
<feColorMatrix in="SourceAlpha" type="matrix" values="0 0 0 0 0 0 0 0 0 0 0 0 0 0 0 0 0 0 127 0" result="hardAlpha"/>
<feOffset dy="16"/>
<feGaussianBlur stdDeviation="12"/>
<feColorMatrix type="matrix" values="0 0 0 0 0 0 0 0 0 0 0 0 0 0 0 0 0 0 0.06 0"/>
<feBlend mode="normal" in2="effect2_dropShadow_1822_129" result="effect3_dropShadow_1822_129"/>
<feBlend mode="normal" in="SourceGraphic" in2="effect3_dropShadow_1822_129" result="shape"/>
</filter>
<filter id="filter1_d_1822_129" x="0.740723" y="1.995" width="37.1133" height="36.6001" filterUnits="userSpaceOnUse" color-interpolation-filters="sRGB">
<feFlood flood-opacity="0" result="BackgroundImageFix"/>
<feColorMatrix in="SourceAlpha" type="matrix" values="0 0 0 0 0 0 0 0 0 0 0 0 0 0 0 0 0 0 127 0" result="hardAlpha"/>
<feOffset dy="1"/>
<feGaussianBlur stdDeviation="3.5"/>
<feComposite in2="hardAlpha" operator="out"/>
<feColorMatrix type="matrix" values="0 0 0 0 0.243899 0 0 0 0 0.148462 0 0 0 0 0.754119 0 0 0 0.5 0"/>
<feBlend mode="normal" in2="BackgroundImageFix" result="effect1_dropShadow_1822_129"/>
<feBlend mode="normal" in="SourceGraphic" in2="effect1_dropShadow_1822_129" result="shape"/>
</filter>
<linearGradient id="paint0_linear_1822_129" x1="12.4975" y1="-2.91608e-07" x2="26.1423" y2="38.59" gradientUnits="userSpaceOnUse">
<stop stop-color="#EFECFF"/>
<stop offset="1" stop-color="#6548FF"/>
</linearGradient>
<clipPath id="clip0_1822_129">
<rect width="38.5947" height="38.59" rx="3" fill="white"/>
</clipPath>
</defs>
</svg>
